<?xml version="1.0" encoding="iso-8859-1"?>
<!-- Generator: Adobe Illustrator 16.0.0, SVG Export Plug-In . SVG Version: 6.00 Build 0)  -->
<!DOCTYPE svg PUBLIC "-//W3C//DTD SVG 1.1//EN" "http://www.w3.org/Graphics/SVG/1.1/DTD/svg11.dtd">
<svg version="1.1" id="Capa_1" xmlns="http://www.w3.org/2000/svg" xmlns:xlink="http://www.w3.org/1999/xlink" x="0px" y="0px"
	 width="708.631px" height="708.631px" viewBox="0 0 708.631 708.631" style="enable-background:new 0 0 708.631 708.631;"
	 xml:space="preserve">
<g>
	<g>
		<rect x="337.373" y="127.65" width="32.21" height="516.561"/>
		<polygon points="240.741,127.65 208.531,127.65 240.741,644.211 272.952,644.211 		"/>
		<polygon points="111.867,128.842 79.688,128.842 144.109,708.631 562.847,708.631 627.268,128.842 595.057,128.842 
			530.636,676.422 176.32,676.422 		"/>
		<polygon points="466.215,127.65 434.004,644.211 466.215,644.211 498.426,127.65 		"/>
		<path d="M660.315,64.421c0-32.211-16.138-32.211-16.138-32.211H434.004c0,0,0-32.21-32.21-32.21h-96.632
			c-32.21,0-32.21,32.21-32.21,32.21H64.453c0,0-16.138,0-16.138,32.211c0,32.21,16.138,32.21,16.138,32.21h579.725
			C644.178,96.632,660.315,96.632,660.315,64.421z"/>
	</g>
</g>
<g>
</g>
<g>
</g>
<g>
</g>
<g>
</g>
<g>
</g>
<g>
</g>
<g>
</g>
<g>
</g>
<g>
</g>
<g>
</g>
<g>
</g>
<g>
</g>
<g>
</g>
<g>
</g>
<g>
</g>
</svg>
